HIERARCHY
ROOT SpineBase
{
  OFFSET 0.000000 0.000000 0.000000
  CHANNELS 6 Xposition Yposition Zposition Zrotation Xrotation Yrotation
  JOINT SpineMid
  {
    OFFSET 0.000000 35.492359 0.000000
    CHANNELS 3 Zrotation Xrotation Yrotation
    JOINT SpineShoulder
    {
      OFFSET 0.029056 26.330511 -0.947769
      CHANNELS 3 Zrotation Xrotation Yrotation
      JOINT Neck
      {
        OFFSET 0.031520 8.690275 -0.700203
        CHANNELS 3 Zrotation Xrotation Yrotation
        JOINT Head
        {
          OFFSET -0.334312 11.277107 3.671282
          CHANNELS 3 Zrotation Xrotation Yrotation
          End Site
          {
            OFFSET 0 0 0
          }
        }
      }
      JOINT ShoulderLeft
      {
        OFFSET -7.504076 -4.950474 -5.607870
        CHANNELS 3 Zrotation Xrotation Yrotation
        JOINT ElbowLeft
        {
          OFFSET -7.521157 -20.596295 8.017168
          CHANNELS 3 Zrotation Xrotation Yrotation
          JOINT WristLeft
          {
            OFFSET -1.789194 -23.279045 4.379594
            CHANNELS 3 Zrotation Xrotation Yrotation
            JOINT HandLeft
            {
              OFFSET 2.391142 -3.940401 -8.810463
              CHANNELS 3 Zrotation Xrotation Yrotation
              JOINT HandTipLeft
              {
                OFFSET -0.484965 -6.286830 -0.757219
                CHANNELS 3 Zrotation Xrotation Yrotation
                End Site
                {
                  OFFSET 0 0 0
                }
              }
              JOINT ThumbLeft
              {
                OFFSET 2.176123 4.915097 -6.276011
                CHANNELS 3 Zrotation Xrotation Yrotation
                End Site
                {
                  OFFSET 0 0 0
                }
              }
            }
          }
        }
      }
      JOINT ShoulderRight
      {
        OFFSET 10.935284 -5.991456 -13.347756
        CHANNELS 3 Zrotation Xrotation Yrotation
        JOINT ElbowRight
        {
          OFFSET 6.341968 -23.355539 -1.939581
          CHANNELS 3 Zrotation Xrotation Yrotation
          JOINT WristRight
          {
            OFFSET 5.208306 -22.649935 4.388655
            CHANNELS 3 Zrotation Xrotation Yrotation
            JOINT HandRight
            {
              OFFSET -0.588565 -4.956028 1.617585
              CHANNELS 3 Zrotation Xrotation Yrotation
              JOINT HandTipRight
              {
                OFFSET 1.291940 -6.395638 -0.281721
                CHANNELS 3 Zrotation Xrotation Yrotation
                End Site
                {
                  OFFSET 0 0 0
                }
              }
              JOINT ThumbRight
              {
                OFFSET -3.762967 1.543007 -2.768235
                CHANNELS 3 Zrotation Xrotation Yrotation
                End Site
                {
                  OFFSET 0 0 0
                }
              }
            }
          }
        }
      }
    }
  }
  JOINT HipLeft
  {
    OFFSET -5.912604 1.101631 -1.011912
    CHANNELS 3 Zrotation Xrotation Yrotation
    JOINT KneeLeft
    {
      OFFSET -2.609108 -26.908691 -1.244973
      CHANNELS 3 Zrotation Xrotation Yrotation
      JOINT AnkleLeft
      {
        OFFSET 0.132922 -31.751341 0.578705
        CHANNELS 3 Zrotation Xrotation Yrotation
        JOINT FootLeft
        {
          OFFSET -0.533263 -3.749364 -4.627809
          CHANNELS 3 Zrotation Xrotation Yrotation
          End Site
          {
            OFFSET 0 0 0
          }
        }
      }
    }
  }
  JOINT HipRight
  {
    OFFSET 6.323516 1.705370 -6.368141
    CHANNELS 3 Zrotation Xrotation Yrotation
    JOINT KneeRight
    {
      OFFSET 4.953503 -25.194279 -3.873798
      CHANNELS 3 Zrotation Xrotation Yrotation
      JOINT AnkleRight
      {
        OFFSET -0.974468 -32.031280 -0.911794
        CHANNELS 3 Zrotation Xrotation Yrotation
        JOINT FootRight
        {
          OFFSET 1.061012 -4.611951 -2.658306
          CHANNELS 3 Zrotation Xrotation Yrotation
          End Site
          {
            OFFSET 0 0 0
          }
        }
      }
    }
  }
}
MOTION
Frames: 6
Frame Time: 0.033333
-14.042633 63.091924 256.632774 0.169961 0.183902 24.273415 -0.230536 -0.097773 -24.273885 -0.000000 0.000000 0.000000 0.176131 1.860714 -0.005007 0.000000 0.000000 0.000000 1.841747 0.577636 0.500663 -0.874037 -0.007900 -0.375073 -17.380075 -46.351713 0.235428 82.690012 67.800582 -72.494812 0.000000 0.000000 0.000000 0.000000 0.000000 0.000000 -0.003595 0.911238 0.247608 -0.047441 0.110941 -0.022474 -1.137832 -1.048682 -0.628990 -0.695768 0.893835 0.656021 0.000000 0.000000 0.000000 0.000000 0.000000 0.000000 -0.230536 -0.097773 -24.273885 0.055647 -1.105583 -0.003077 -3.763755 12.863548 2.957137 0.000000 0.000000 0.000000 -0.230536 -0.097773 -24.273885 0.410111 -0.734682 0.013310 -36.119370 42.284899 38.362903 0.000000 0.000000 0.000000
-14.038799 63.085170 256.637174 0.169103 0.197846 24.299920 -0.235537 -0.110728 -24.300440 -0.000000 0.000000 0.000000 0.282814 1.721001 -0.045072 0.000000 0.000000 0.000000 1.738260 0.544898 0.472919 -0.824169 0.049553 -0.358470 -16.445375 -44.525218 1.073000 73.018679 66.636873 -63.226248 0.000000 0.000000 0.000000 0.000000 0.000000 0.000000 0.036904 0.812340 0.217113 -0.161561 0.275571 0.007915 0.121435 -1.087781 -0.224990 1.672308 2.188903 0.335329 0.000000 0.000000 0.000000 0.000000 0.000000 0.000000 -0.235537 -0.110728 -24.300440 0.035188 -1.030676 -0.003356 -7.726615 20.986331 6.600248 0.000000 0.000000 0.000000 -0.235537 -0.110728 -24.300440 0.369187 -0.763697 0.015189 -36.055825 42.367759 38.368674 0.000000 0.000000 0.000000
-14.032440 63.099508 256.636696 0.185565 0.208520 24.299717 -0.254934 -0.113683 -24.300307 -0.000000 0.000000 0.000000 0.257742 1.526691 -0.041896 0.000000 0.000000 0.000000 1.729181 0.559427 0.463845 -0.792482 0.099308 -0.350727 -15.555133 -42.435196 2.098359 67.944648 65.541220 -58.498328 0.000000 0.000000 0.000000 0.000000 0.000000 0.000000 -0.000000 0.000000 0.000000 -0.178159 1.097963 0.220156 0.173971 -1.098635 -0.216781 3.599036 3.448333 0.426552 0.000000 0.000000 0.000000 0.000000 0.000000 0.000000 -0.254934 -0.113683 -24.300307 0.044662 -0.938305 -0.002748 -9.346277 22.939384 8.189915 0.000000 0.000000 0.000000 -0.254934 -0.113683 -24.300307 0.352590 -0.821704 0.017495 -35.439448 41.870380 37.678027 0.000000 0.000000 0.000000
-14.030892 63.085801 256.642170 0.210580 0.211690 24.257829 -0.278959 -0.106482 -24.258478 -0.000000 0.000000 0.000000 0.103104 1.321126 0.004396 0.000000 0.000000 0.000000 1.726373 0.566974 0.459874 -0.778111 0.148610 -0.349535 -14.929255 -40.870505 2.720006 63.473928 64.707716 -54.365267 0.000000 0.000000 0.000000 0.000000 0.000000 0.000000 -0.000000 0.000000 0.000000 -0.244298 1.026168 0.191249 0.240911 -1.026968 -0.186902 3.310049 3.130446 0.393429 0.000000 0.000000 0.000000 0.000000 0.000000 0.000000 -0.278959 -0.106482 -24.258478 -0.000000 0.000000 0.000000 -9.522878 22.210979 8.322238 0.000000 0.000000 0.000000 -0.278959 -0.106482 -24.258478 0.338596 -0.892687 0.020164 -34.020428 39.713485 35.762509 0.000000 0.000000 0.000000
-14.027492 63.095912 256.644010 0.263726 0.218664 24.218510 -0.330215 -0.091231 -24.219277 -0.000000 0.000000 0.000000 -0.168771 1.166656 0.090951 0.000000 0.000000 0.000000 1.738982 0.578718 0.460294 -0.769520 0.224977 -0.353804 -15.372192 -41.948653 2.575750 65.741736 64.850638 -56.469097 0.000000 0.000000 0.000000 0.000000 0.000000 0.000000 -0.000000 0.000000 0.000000 -0.248937 1.079827 0.202895 0.920533 -0.545841 -0.032264 0.681856 1.278736 0.138410 0.000000 0.000000 0.000000 0.000000 0.000000 0.000000 -0.330215 -0.091231 -24.219277 -0.000000 0.000000 0.000000 -8.276432 19.951900 7.180535 0.000000 0.000000 0.000000 -0.330215 -0.091231 -24.219277 0.314310 -0.886406 0.020458 -25.813710 33.503779 26.862407 0.000000 0.000000 0.000000
-14.024407 63.099607 256.641091 0.312021 0.224120 24.160206 -0.376419 -0.076778 -24.161069 -0.000000 0.000000 0.000000 -0.368336 1.116735 0.156129 0.000000 0.000000 0.000000 1.716220 0.580486 0.450773 -0.754866 0.266244 -0.349379 -14.783888 -40.509262 3.016795 61.358406 64.402034 -52.485957 0.000000 0.000000 0.000000 0.000000 0.000000 0.000000 -0.000000 0.000000 0.000000 -0.275711 1.213641 0.229180 0.270915 -1.214720 -0.223388 -1.070402 1.584657 0.382569 0.000000 0.000000 0.000000 0.000000 0.000000 0.000000 -0.376419 -0.076778 -24.161069 -0.000000 0.000000 0.000000 -8.964972 21.050237 7.830763 0.000000 0.000000 0.000000 -0.376419 -0.076778 -24.161069 0.298288 -0.816496 0.018480 -18.300261 25.266918 18.503975 0.000000 0.000000 0.000000
